<svg width="32" height="32" viewBox="0 0 40 40" fill="none" xmlns="http://www.w3.org/2000/svg" class="shrink-0"><path d="M40,20c0,11.04-8.95,20-20,20-2.22,0-4.36-.36-6.36-1.04-1.8-.6-3.48-1.45-5-2.51C3.42,32.85,0,26.82,0,20,0,8.95,8.95,0,20,0s20,8.95,20,20Z" fill="#9b5ad7"></path><path d="M11.14,30.79v-10.87c0-4.85,3.97-8.79,8.86-8.79s8.86,3.93,8.86,8.79-3.97,9.2-8.86,9.2" fill="#9b5ad7" stroke="#fff" stroke-miterlimit="10" stroke-width="5"></path><path d="M13.64,20.51v18.45c-1.8-.6-3.48-1.45-5-2.51v-15.88c0-1.21.92-2.19,2.07-2.19h.92c1.11,0,2.01.95,2.01,2.13Z" fill="#fff"></path><circle cx="20" cy="20" r="2.5" fill="#fff"></circle><circle cx="20" cy="29.12" r="2.5" fill="#fff"></circle></svg>
