<svg xmlns="http://www.w3.org/2000/svg" fill="none" viewBox="0 0 24 24">
  <g clip-path="url(#a)">
    <path fill="url(#b)" d="M12 24a12 12 0 1 0 0-24 12 12 0 0 0 0 24Z"/>
    <path fill="#FFFDFE" d="M4.91 12.16V9.94c.02-.22 0-.44.03-.66.04-.4.06-.82.14-1.22.06-.28.16-.55.24-.82.17-.33.36-.66.61-.95.33-.38.72-.7 1.17-.9.6-.27 1.22-.4 1.87-.43 1.67-.09 3.34-.04 5.01-.04.6 0 1.22.02 1.81.13l.68.17.35.14a3.67 3.67 0 0 1 2.1 2.68c.13.6.15 1.23.16 1.85v3.87c0 .37-.02.73-.03 1.1a4.68 4.68 0 0 1-.77 2.6A3.82 3.82 0 0 1 15.5 19c-.7.08-1.42.08-2.14.08H9.61a5.53 5.53 0 0 1-2.17-.33 3.25 3.25 0 0 1-1.06-.59 3.7 3.7 0 0 1-1.06-1.44 6.09 6.09 0 0 1-.38-2.02c-.03-.84-.02-1.69-.03-2.54Zm12.38 4.46c.09-.12.16-.26.22-.4.25-.6.27-1.25.27-1.9l.02-.13V9.81c-.01-.5-.02-1-.13-1.5a2.4 2.4 0 0 0-1.82-1.94c-.4-.1-.8-.13-1.2-.14a105.2 105.2 0 0 0-4.7-.02c-.57 0-1.15 0-1.72.15-.96.23-1.58.82-1.85 1.78-.15.56-.15 1.13-.16 1.7v.18l-.01 2.93.01 1.2v.1-.02c0 .48.02.95.11 1.42.2.99.77 1.66 1.74 1.95.4.12.8.16 1.2.17 1.67.05 3.34.04 5.02.02a6.6 6.6 0 0 0 1.52-.15 2.37 2.37 0 0 0 1.48-1.02Z"/>
    <path fill="#FFFDFE" d="m8.87 10.12.01-.02c.2-.28.41-.54.66-.78a3.57 3.57 0 0 1 4.22-.5 3.52 3.52 0 0 1 1.86 2.73l.02.1a3.78 3.78 0 0 1-1.2 3.06 3.64 3.64 0 0 1-5.58-4.55l.01-.04Zm4.75.18a1.51 1.51 0 0 0-.42-.33 2.29 2.29 0 0 0-2.32-.03 2.1 2.1 0 0 0-.96.96 2.26 2.26 0 0 0-.1 2c.2.53.57.93 1.07 1.18.68.35 1.37.4 2.08.07a2 2 0 0 0 .86-.66c.26-.32.43-.68.49-1.1a2.3 2.3 0 0 0-.7-2.1Zm2.16-1.23a.85.85 0 0 1-.85-.85c0-.47.38-.84.85-.84a.85.85 0 1 1 0 1.69Z"/>
  </g>
  <defs>
    <radialGradient id="b" cx="0" cy="0" r="1" gradientTransform="translate(6.97 23.94) scale(24.192)" gradientUnits="userSpaceOnUse">
      <stop stop-color="#FFD776"/>
      <stop offset=".25" stop-color="#F3A554"/>
      <stop offset=".38" stop-color="#F15C3C"/>
      <stop offset=".54" stop-color="#D94867"/>
      <stop offset=".7" stop-color="#C32F87"/>
      <stop offset=".91" stop-color="#7D63A7"/>
      <stop offset=".99" stop-color="#5C6CB3"/>
    </radialGradient>
    <clipPath id="a">
      <path fill="#fff" d="M0 0h24v24H0z"/>
    </clipPath>
  </defs>
</svg>
