<svg xmlns="http://www.w3.org/2000/svg" fill="none" viewBox="0 0 24 24">
  <g fill-rule="evenodd" clip-path="url(#a)" clip-rule="evenodd">
    <path fill="#007EBB" d="M12 24a12 12 0 1 0 0-24 12 12 0 0 0 0 24Z"/>
    <path fill="#fff" d="M19.67 19h-3.02v-5.13c0-1.41-.53-2.2-1.65-2.2-1.2 0-1.84.82-1.84 2.2V19h-2.9V9.22h2.9v1.32s.87-1.62 2.95-1.62c2.07 0 3.56 1.27 3.56 3.89V19ZM6.79 7.94C5.8 7.94 5 7.14 5 6.14a1.8 1.8 0 1 1 3.58 0c0 1-.8 1.8-1.79 1.8ZM5.3 19h3.03V9.22H5.29V19Z"/>
  </g>
  <defs>
    <clipPath id="a">
      <path fill="#fff" d="M0 0h24v24H0z"/>
    </clipPath>
  </defs>
</svg>
