<svg xmlns="http://www.w3.org/2000/svg" fill="none" viewBox="0 0 24 24">
  <g fill-rule="evenodd" clip-path="url(#a)" clip-rule="evenodd">
    <path fill="#1A121F" d="M12 0a12 12 0 1 1 0 24 12 12 0 0 1 0-24Zm2.4 5.09.11.6h.46c.08.72.29 1.37.6 1.92.53.48 1.22.78 2.04.84v.66l.48.06v2.14c-1.07.1-2-.24-3.1-.9l.18 3.66c0 1.18 0 1.72-.63 2.8-1.48 2.54-4.2 2.65-5.92 1.33a4.12 4.12 0 0 1-2.15-1.7c-1.43-2.34-.14-6.16 4-6.55v.7c.23-.04.46-.08.7-.1v2.25c-.9.15-1.46.43-1.73.94-.53 1.02-.3 1.9.27 2.47 1.17.2 2.47-.61 2.28-3.13v-8h2.42Z"/>
    <path fill="#26F4EE" d="M14.4 5.09c.23 1.9 1.36 3.24 3.2 3.36v1.8-1.53c-1.85-.11-2.9-1.25-3.13-3.15h-1.95v8c.28 3.61-2.52 3.72-3.6 2.35 1.26.79 3.3.28 3.06-2.83v-8h2.42ZM9.16 18.36a4.13 4.13 0 0 1-2.7-1.85c-1.42-2.34-.13-6.16 4.02-6.56l-.01.57c-3.85.61-4.23 4.75-3.17 6.47a3.3 3.3 0 0 0 1.86 1.37Z"/>
    <path fill="#FB2C53" d="M14.98 5.69a4.32 4.32 0 0 0 1.19 2.65c-.93-.48-1.5-1.39-1.67-2.65h.48Zm2.64 3.42c.15.03.32.05.49.06v2.14c-1.07.1-2-.24-3.1-.9l.17 3.66c0 1.18 0 1.72-.63 2.8a3.93 3.93 0 0 1-6.15 1.15c2.23 1.27 6.12.27 6.12-4.07v-4c1.09.66 2.03 1.01 3.1.9V9.12Zm-7.15 1.54c.23-.04.46-.08.71-.1v2.25c-.9.15-1.47.43-1.74.94-.75 1.43.04 2.6 1.08 2.97-1.3-.04-2.6-1.38-1.7-3.1.27-.5.75-.78 1.65-.93v-2.03Z"/>
    <path fill="#FEFEFE" d="M14.47 5.57c.22 1.9 1.28 3.03 3.12 3.15v2.14c-1.06.1-2-.25-3.09-.9v4c.01 5.2-5.6 5.6-7.2 3.02-1.06-1.72-.68-5.86 3.17-6.47v2.17c-.9.15-1.39.43-1.65.94-1.65 3.15 4.1 5.03 3.7-.05v-8h1.95Z"/>
  </g>
  <defs>
    <clipPath id="a">
      <path fill="#fff" d="M0 0h24v24H0z"/>
    </clipPath>
  </defs>
</svg>
