<svg width="177" height="177" xmlns="http://www.w3.org/2000/svg" shape-rendering="geometricPrecision" text-rendering="geometricPrecision" image-rendering="optimizeQuality" fill-rule="evenodd" clip-rule="evenodd">
 <g id="Layer_1">
  <title>Layer 1</title>
  <path fill="#000000" id="svg_1" d="m88.5,177c-48.89503,0 -88.5,-39.60497 -88.5,-88.5c0,-48.89503 39.60497,-88.5 88.5,-88.5c48.89503,0 88.5,39.60497 88.5,88.5c0,48.89503 -39.60497,88.5 -88.5,88.5z" opacity="undefined"/>
  <g id="svg_3" stroke="null">
   <path id="svg_4" d="m97.39776,81.18145l34.81747,-40.47249l-8.25063,0l-30.232,35.1417l-24.14621,-35.1417l-27.8498,0l36.51381,53.14047l-36.51381,42.44162l8.25109,0l31.92577,-37.11082l25.50017,37.11082l27.8498,0l-37.86769,-55.1096l0.00203,0zm-11.301,13.13616l-3.69961,-5.29159l-29.43648,-42.10575l12.6732,0l23.75558,33.98068l3.69961,5.29159l30.87944,44.16968l-12.6732,0l-25.19855,-36.04259l0,-0.00203l0.00001,0.00001z" fill="white" stroke="null"/>
  </g>
 </g>

</svg>